<?xml version="1.0" encoding="UTF-8"?>
<svg width="92" height="32" viewBox="0 0 92 32" fill="none" xmlns="http://www.w3.org/2000/svg">
  <path d="M33.0279 7.95674L33.0279 7.95674C32.6099 7.95674 32.2719 8.29474 32.2719 8.71274V23.2887C32.2719 23.7067 32.6099 24.0447 33.0279 24.0447H34.5399C34.9579 24.0447 35.2959 23.7067 35.2959 23.2887V8.71274C35.2959 8.29474 34.9579 7.95674 34.5399 7.95674H33.0279Z" fill="black"/>
  <path d="M42.1319 7.95674C41.7139 7.95674 41.3759 8.29474 41.3759 8.71274V23.2887C41.3759 23.7067 41.7139 24.0447 42.1319 24.0447H43.6439C44.0619 24.0447 44.3999 23.7067 44.3999 23.2887V17.5047H49.7199C52.2639 17.5047 54.3359 15.4327 54.3359 12.8887C54.3359 10.3447 52.2639 8.27274 49.7199 8.27274H42.1319V7.95674ZM49.7199 14.7967H44.3999V11.0287H49.7199C50.6079 11.0287 51.3119 11.7327 51.3119 12.6207C51.3119 13.5087 50.6079 14.2127 49.7199 14.2127V14.7967Z" fill="black"/>
  <path d="M62.1679 7.95674C61.7499 7.95674 61.4119 8.29474 61.4119 8.71274V23.2887C61.4119 23.7067 61.7499 24.0447 62.1679 24.0447H69.7559C72.2999 24.0447 74.3719 21.9727 74.3719 19.4287C74.3719 17.5047 73.1679 15.9127 71.5599 15.2727C72.5519 14.4647 73.1679 13.2607 73.1679 11.9527C73.1679 9.72474 71.3479 7.90474 69.1199 7.90474H62.1679V7.95674ZM69.1199 10.6607C69.6959 10.6607 70.1439 11.1087 70.1439 11.6847C70.1439 12.2607 69.6959 12.7087 69.1199 12.7087H64.4359V10.6607H69.1199ZM69.7559 21.3367H64.4359V15.4167H69.7559C70.9599 15.4167 71.9519 16.4087 71.9519 17.6127C71.9519 18.8167 70.9599 19.8087 69.7559 19.8087V21.3367Z" fill="black"/>
  <path d="M82.2039 7.95674C81.7859 7.95674 81.4479 8.29474 81.4479 8.71274V23.2887C81.4479 23.7067 81.7859 24.0447 82.2039 24.0447H83.7159C84.1339 24.0447 84.4719 23.7067 84.4719 23.2887V8.71274C84.4719 8.29474 84.1339 7.95674 83.7159 7.95674H82.2039Z" fill="black"/>
  <path d="M91.9999 7.95674C91.5819 7.95674 91.2439 8.29474 91.2439 8.71274V23.2887C91.2439 23.7067 91.5819 24.0447 91.9999 24.0447H91.9999C92.4179 24.0447 92.7559 23.7067 92.7559 23.2887V8.71274C92.7559 8.29474 92.4179 7.95674 91.9999 7.95674H91.9999Z" fill="black"/>
  <path d="M0 16C0 7.16344 7.16344 0 16 0H24C15.1634 0 8 7.16344 8 16C8 24.8366 15.1634 32 24 32H16C7.16344 32 0 24.8366 0 16Z" fill="#FFAD05"/>
  <path d="M8 16C8 7.16344 15.1634 0 24 0V32C15.1634 32 8 24.8366 8 16Z" fill="#FFCB47"/>
  <path d="M8 24H24V32H8V24Z" fill="#FF5100"/>
</svg>
